<?xml version="1.0" encoding="UTF-8"?>
<!DOCTYPE svg PUBLIC "-//W3C//DTD SVG 1.1//EN" "http://www.w3.org/Graphics/SVG/1.1/DTD/svg11.dtd">
<svg xmlns="http://www.w3.org/2000/svg" version="1.1" width="626px" height="626px" style="shape-rendering:geometricPrecision; text-rendering:geometricPrecision; image-rendering:optimizeQuality; fill-rule:evenodd; clip-rule:evenodd" xmlns:xlink="http://www.w3.org/1999/xlink">
<g><path style="opacity:1" fill="#fefefe" d="M -0.5,-0.5 C 208.167,-0.5 416.833,-0.5 625.5,-0.5C 625.5,208.167 625.5,416.833 625.5,625.5C 416.833,625.5 208.167,625.5 -0.5,625.5C -0.5,416.833 -0.5,208.167 -0.5,-0.5 Z"/></g>
<g><path style="opacity:1" fill="#171717" d="M 440.5,186.5 C 439.373,187.122 438.373,187.955 437.5,189C 439.657,191.322 441.99,193.489 444.5,195.5C 443.8,195.787 443.133,196.12 442.5,196.5C 429.448,181.31 414.115,168.977 396.5,159.5C 355.011,136.146 311.011,130.313 264.5,142C 200.505,161.995 159.005,204.162 140,268.5C 132.667,297.162 132.667,325.829 140,354.5C 142.275,361.822 144.441,369.155 146.5,376.5C 123.423,314.983 130.589,257.317 168,203.5C 209.86,151.164 264.36,127.664 331.5,133C 374.613,137.558 410.946,155.391 440.5,186.5 Z"/></g>
<g><path style="opacity:1" fill="#fdfdfd" d="M 396.5,159.5 C 414.115,168.977 429.448,181.31 442.5,196.5C 486.042,250.418 495.875,310.084 472,375.5C 455.835,413.828 429.668,443.161 393.5,463.5C 373.943,473.184 353.276,479.351 331.5,482C 322.5,482.667 313.5,482.667 304.5,482C 290.071,479.236 281.237,470.736 278,456.5C 276.199,443.701 278.533,431.701 285,420.5C 295.056,402.113 307.056,385.113 321,369.5C 337.033,351.97 353.2,334.636 369.5,317.5C 371.138,318.914 372.472,318.58 373.5,316.5C 373.296,317.529 373.796,318.529 375,319.5C 375.5,350.498 375.667,381.498 375.5,412.5C 374.209,421.125 369.209,426.125 360.5,427.5C 358.897,427.312 357.563,427.812 356.5,429C 377.5,429.667 398.5,429.667 419.5,429C 418.255,428.209 416.922,427.709 415.5,427.5C 407.916,425.75 403.082,421.083 401,413.5C 400.667,372.833 400.333,332.167 400,291.5C 399.051,293.093 397.885,294.426 396.5,295.5C 394.955,294.77 394.122,293.437 394,291.5C 393.751,292.624 393.251,293.624 392.5,294.5C 392.167,294.333 391.833,294.167 391.5,294C 392.337,292.989 392.67,291.822 392.5,290.5C 404.832,274.954 414.999,257.954 423,239.5C 433.389,212.078 427.556,188.911 405.5,170C 404.563,169.308 403.897,169.475 403.5,170.5C 400.982,169.306 400.982,168.14 403.5,167C 401.137,164.82 398.47,163.153 395.5,162C 396.252,161.329 396.586,160.496 396.5,159.5 Z"/></g>
<g><path style="opacity:1" fill="#080808" d="M 403.5,170.5 C 403.897,169.475 404.563,169.308 405.5,170C 427.556,188.911 433.389,212.078 423,239.5C 414.999,257.954 404.832,274.954 392.5,290.5C 384.488,299.181 376.821,308.181 369.5,317.5C 353.2,334.636 337.033,351.97 321,369.5C 307.056,385.113 295.056,402.113 285,420.5C 278.533,431.701 276.199,443.701 278,456.5C 281.237,470.736 290.071,479.236 304.5,482C 313.5,482.667 322.5,482.667 331.5,482C 353.276,479.351 373.943,473.184 393.5,463.5C 393.56,464.043 393.893,464.376 394.5,464.5C 398.156,462.269 401.823,460.435 405.5,459C 406.634,460.016 406.301,460.683 404.5,461C 405.672,461.419 406.672,462.085 407.5,463C 405.104,463.879 402.771,464.546 400.5,465C 401.167,465.333 401.833,465.667 402.5,466C 400.574,466.422 399.574,467.589 399.5,469.5C 365.557,488.789 329.224,495.955 290.5,491C 275.386,484.968 266.886,473.801 265,457.5C 263.174,431.308 269.341,407.142 283.5,385C 264.929,347.691 245.429,310.858 225,274.5C 219.712,266.371 212.546,260.704 203.5,257.5C 222.5,256.167 241.5,256.167 260.5,257.5C 252.575,260.689 250.075,266.356 253,274.5C 268.079,303.658 283.412,332.658 299,361.5C 306.289,351.876 313.955,342.542 322,333.5C 344.367,310.134 366.367,286.468 388,262.5C 395.443,253.723 402.109,244.39 408,234.5C 418.894,215.643 419.227,196.643 409,177.5C 407.303,174.98 405.47,172.647 403.5,170.5 Z"/></g>
<g><path style="opacity:1" fill="#8d8d8d" d="M 260.5,257.5 C 241.5,256.167 222.5,256.167 203.5,257.5C 202.527,257.013 201.527,256.513 200.5,256C 221.5,255.333 242.5,255.333 263.5,256C 262.756,257.039 261.756,257.539 260.5,257.5 Z"/></g>
<g><path style="opacity:1" fill="#0e0e0e" d="M 440.5,186.5 C 470.472,216.514 487.306,252.847 491,295.5C 495.006,364.637 469.506,419.804 414.5,461C 409.611,464.061 404.611,466.895 399.5,469.5C 399.574,467.589 400.574,466.422 402.5,466C 401.833,465.667 401.167,465.333 400.5,465C 402.771,464.546 405.104,463.879 407.5,463C 406.672,462.085 405.672,461.419 404.5,461C 406.301,460.683 406.634,460.016 405.5,459C 401.823,460.435 398.156,462.269 394.5,464.5C 393.893,464.376 393.56,464.043 393.5,463.5C 429.668,443.161 455.835,413.828 472,375.5C 495.875,310.084 486.042,250.418 442.5,196.5C 443.133,196.12 443.8,195.787 444.5,195.5C 441.99,193.489 439.657,191.322 437.5,189C 438.373,187.955 439.373,187.122 440.5,186.5 Z"/></g>
<g><path style="opacity:1" fill="#0a0a0a" d="M 415.5,427.5 C 397.167,428.833 378.833,428.833 360.5,427.5C 369.209,426.125 374.209,421.125 375.5,412.5C 376.332,381.336 376.832,350.003 377,318.5C 383.983,311.174 390.483,303.507 396.5,295.5C 397.885,294.426 399.051,293.093 400,291.5C 400.333,332.167 400.667,372.833 401,413.5C 403.082,421.083 407.916,425.75 415.5,427.5 Z"/></g>
<g><path style="opacity:1" fill="#e9e9e9" d="M 392.5,290.5 C 392.67,291.822 392.337,292.989 391.5,294C 391.833,294.167 392.167,294.333 392.5,294.5C 393.251,293.624 393.751,292.624 394,291.5C 394.122,293.437 394.955,294.77 396.5,295.5C 390.483,303.507 383.983,311.174 377,318.5C 376.832,350.003 376.332,381.336 375.5,412.5C 375.667,381.498 375.5,350.498 375,319.5C 373.796,318.529 373.296,317.529 373.5,316.5C 372.472,318.58 371.138,318.914 369.5,317.5C 376.821,308.181 384.488,299.181 392.5,290.5 Z"/></g>
<g><path style="opacity:1" fill="#2e2e2e" d="M 146.5,376.5 C 148.293,378.426 149.293,380.759 149.5,383.5C 147.707,381.574 146.707,379.241 146.5,376.5 Z"/></g>
<g><path style="opacity:1" fill="#3b3b3b" d="M 149.5,383.5 C 152.499,387.829 154.666,392.496 156,397.5C 153.012,393.192 150.845,388.525 149.5,383.5 Z"/></g>
<g><path style="opacity:1" fill="#404040" d="M 160.5,404.5 C 158.584,403.335 157.751,401.668 158,399.5C 159.372,400.91 160.205,402.577 160.5,404.5 Z"/></g>
<g><path style="opacity:1" fill="#434343" d="M 160.5,404.5 C 161.906,404.973 162.573,405.973 162.5,407.5C 161.094,407.027 160.427,406.027 160.5,404.5 Z"/></g>
<g><path style="opacity:1" fill="#232323" d="M 246.5,427.5 C 231.167,428.833 215.833,428.833 200.5,427.5C 212.029,424.132 218.862,416.465 221,404.5C 221.649,363.113 221.649,321.779 221,280.5C 222,282.5 223,284.5 224,286.5C 224.333,325.833 224.667,365.167 225,404.5C 227.237,416.9 234.403,424.567 246.5,427.5 Z"/></g>
<g><path style="opacity:1" fill="#454545" d="M 162.5,407.5 C 163.906,407.973 164.573,408.973 164.5,410.5C 163.094,410.027 162.427,409.027 162.5,407.5 Z"/></g>
<g><path style="opacity:1" fill="#4a4a4a" d="M 164.5,410.5 C 165.906,410.973 166.573,411.973 166.5,413.5C 165.094,413.027 164.427,412.027 164.5,410.5 Z"/></g>
<g><path style="opacity:1" fill="#4d4d4d" d="M 166.5,413.5 C 168.262,414.262 169.262,415.596 169.5,417.5C 167.738,416.738 166.738,415.404 166.5,413.5 Z"/></g>
<g><path style="opacity:1" fill="#555555" d="M 169.5,417.5 C 171.587,418.585 172.92,420.251 173.5,422.5C 171.413,421.415 170.08,419.749 169.5,417.5 Z"/></g>
<g><path style="opacity:1" fill="#636363" d="M 173.5,422.5 C 175.914,423.911 177.581,425.911 178.5,428.5C 176.086,427.089 174.419,425.089 173.5,422.5 Z"/></g>
<g><path style="opacity:1" fill="#c6c6c6" d="M 200.5,427.5 C 215.833,428.833 231.167,428.833 246.5,427.5C 248.288,427.215 249.955,427.548 251.5,428.5C 233.843,429.666 216.176,429.833 198.5,429C 199.044,428.283 199.711,427.783 200.5,427.5 Z"/></g>
<g><path style="opacity:1" fill="#c6c6c6" d="M 360.5,427.5 C 378.833,428.833 397.167,428.833 415.5,427.5C 416.922,427.709 418.255,428.209 419.5,429C 398.5,429.667 377.5,429.667 356.5,429C 357.563,427.812 358.897,427.312 360.5,427.5 Z"/></g>
<g><path style="opacity:1" fill="#8a8a8a" d="M 178.5,428.5 C 183.631,433.13 188.631,437.963 193.5,443C 192.833,443.667 192.167,443.667 191.5,443C 186.538,438.548 182.204,433.715 178.5,428.5 Z"/></g>
</svg>
